<svg width="500" height="55" viewBox="0 0 647 69" fill="none" xmlns="http://www.w3.org/2000/svg">
<path d="M0 0H647L577.599 69H0V0Z" fill="#FFBA00"/>
<path d="M334.545 34.75C334.545 36.3133 334.872 37.7017 335.525 38.915C336.178 40.1283 337.077 41.085 338.22 41.785C339.363 42.485 340.693 42.835 342.21 42.835C343.727 42.835 345.057 42.485 346.2 41.785C347.343 41.085 348.23 40.1283 348.86 38.915C349.513 37.7017 349.84 36.3133 349.84 34.75C349.84 33.1867 349.525 31.7983 348.895 30.585C348.265 29.3717 347.378 28.415 346.235 27.715C345.092 27.015 343.75 26.665 342.21 26.665C340.693 26.665 339.363 27.015 338.22 27.715C337.077 28.415 336.178 29.3717 335.525 30.585C334.872 31.7983 334.545 33.1867 334.545 34.75ZM329.26 34.75C329.26 32.8833 329.587 31.18 330.24 29.64C330.893 28.0767 331.803 26.7233 332.97 25.58C334.137 24.4367 335.502 23.5617 337.065 22.955C338.652 22.325 340.367 22.01 342.21 22.01C344.077 22.01 345.792 22.325 347.355 22.955C348.918 23.5617 350.283 24.4367 351.45 25.58C352.64 26.7233 353.55 28.0767 354.18 29.64C354.833 31.18 355.16 32.8833 355.16 34.75C355.16 36.5933 354.833 38.3083 354.18 39.895C353.55 41.4583 352.652 42.8233 351.485 43.99C350.342 45.1567 348.977 46.0667 347.39 46.72C345.827 47.35 344.1 47.665 342.21 47.665C340.32 47.665 338.582 47.35 336.995 46.72C335.432 46.0667 334.067 45.1567 332.9 43.99C331.733 42.8233 330.835 41.4583 330.205 39.895C329.575 38.3083 329.26 36.5933 329.26 34.75ZM368.822 22.5H373.967V47H368.822V22.5ZM382.682 22.5H388.632L378.482 33.98L389.157 47H383.067L372.497 34.12L382.682 22.5ZM393.651 34.75C393.651 36.3133 393.978 37.7017 394.631 38.915C395.285 40.1283 396.183 41.085 397.326 41.785C398.47 42.485 399.8 42.835 401.316 42.835C402.833 42.835 404.163 42.485 405.306 41.785C406.45 41.085 407.336 40.1283 407.966 38.915C408.62 37.7017 408.946 36.3133 408.946 34.75C408.946 33.1867 408.631 31.7983 408.001 30.585C407.371 29.3717 406.485 28.415 405.341 27.715C404.198 27.015 402.856 26.665 401.316 26.665C399.8 26.665 398.47 27.015 397.326 27.715C396.183 28.415 395.285 29.3717 394.631 30.585C393.978 31.7983 393.651 33.1867 393.651 34.75ZM388.366 34.75C388.366 32.8833 388.693 31.18 389.346 29.64C390 28.0767 390.91 26.7233 392.076 25.58C393.243 24.4367 394.608 23.5617 396.171 22.955C397.758 22.325 399.473 22.01 401.316 22.01C403.183 22.01 404.898 22.325 406.461 22.955C408.025 23.5617 409.39 24.4367 410.556 25.58C411.746 26.7233 412.656 28.0767 413.286 29.64C413.94 31.18 414.266 32.8833 414.266 34.75C414.266 36.5933 413.94 38.3083 413.286 39.895C412.656 41.4583 411.758 42.8233 410.591 43.99C409.448 45.1567 408.083 46.0667 406.496 46.72C404.933 47.35 403.206 47.665 401.316 47.665C399.426 47.665 397.688 47.35 396.101 46.72C394.538 46.0667 393.173 45.1567 392.006 43.99C390.84 42.8233 389.941 41.4583 389.311 39.895C388.681 38.3083 388.366 36.5933 388.366 34.75ZM423.175 33.245L421.6 47H416.385L420.025 21.275L430.28 37.095L440.535 21.275L444.175 47H438.96L437.385 33.245L430.28 44.725L423.175 33.245ZM463.608 27.015H452.968V47H447.893V22.5H468.683V47H463.608V27.015ZM477.184 41.435L477.779 37.48H489.539L490.134 41.435H477.184ZM483.589 30.445L479.914 38.88L480.019 40L476.799 47H471.164L483.589 21.065L496.014 47H490.344L487.194 40.21L487.264 38.95L483.589 30.445ZM499.967 36.22V31.705H517.957V36.22H499.967ZM514.772 22.5H519.777V47H514.772V22.5ZM498.322 22.5H503.327V47H498.322V22.5ZM546.786 27.785L524.701 48.225L524.876 41.715L546.961 21.275L546.786 27.785ZM529.531 22.5V43.01L524.701 48.225V22.5H529.531ZM546.961 21.275V47H542.131V26.63L546.961 21.275ZM574.019 27.785L551.934 48.225L552.109 41.715L574.194 21.275L574.019 27.785ZM556.764 22.5V43.01L551.934 48.225V22.5H556.764ZM574.194 21.275V47H569.364V26.63L574.194 21.275Z" fill="black"/>
</svg>
