<svg width="1484" height="721" viewBox="0 0 1484 721" fill="none" xmlns="http://www.w3.org/2000/svg">
<g filter="url(#filter0_d_341_3)">
<rect width="1480" height="721" fill="#313131"/>
</g>
<g filter="url(#filter1_d_341_3)">
<path d="M1480 68.2949L566 68.2949L664.042 -7.05719e-05L1480 -7.05719e-05V68.2949Z" fill="#FFBA00"/>
</g>
<path d="M672.685 35.2385C672.685 36.8485 673.047 38.2602 673.77 39.4735C674.517 40.6635 675.485 41.5852 676.675 42.2385C677.865 42.8685 679.16 43.1835 680.56 43.1835C681.727 43.1835 682.765 43.0319 683.675 42.7285C684.585 42.4252 685.402 42.0169 686.125 41.5035C686.872 40.9902 687.513 40.4302 688.05 39.8235V45.4585C687.047 46.2519 685.95 46.8702 684.76 47.3135C683.593 47.7569 682.112 47.9785 680.315 47.9785C678.448 47.9785 676.71 47.6752 675.1 47.0685C673.513 46.4619 672.125 45.5869 670.935 44.4435C669.768 43.3002 668.858 41.9585 668.205 40.4185C667.575 38.8552 667.26 37.1285 667.26 35.2385C667.26 33.3485 667.575 31.6335 668.205 30.0935C668.858 28.5302 669.768 27.1769 670.935 26.0335C672.125 24.8902 673.513 24.0152 675.1 23.4085C676.71 22.8019 678.448 22.4985 680.315 22.4985C682.112 22.4985 683.593 22.7202 684.76 23.1635C685.95 23.6069 687.047 24.2252 688.05 25.0185V30.6535C687.513 30.0469 686.872 29.4869 686.125 28.9735C685.402 28.4602 684.585 28.0519 683.675 27.7485C682.765 27.4452 681.727 27.2935 680.56 27.2935C679.16 27.2935 677.865 27.6202 676.675 28.2735C675.485 28.9035 674.517 29.8135 673.77 31.0035C673.047 32.1935 672.685 33.6052 672.685 35.2385ZM696.565 35.2385C696.565 36.8019 696.892 38.1902 697.545 39.4035C698.198 40.6169 699.097 41.5735 700.24 42.2735C701.383 42.9735 702.713 43.3235 704.23 43.3235C705.747 43.3235 707.077 42.9735 708.22 42.2735C709.363 41.5735 710.25 40.6169 710.88 39.4035C711.533 38.1902 711.86 36.8019 711.86 35.2385C711.86 33.6752 711.545 32.2869 710.915 31.0735C710.285 29.8602 709.398 28.9035 708.255 28.2035C707.112 27.5035 705.77 27.1535 704.23 27.1535C702.713 27.1535 701.383 27.5035 700.24 28.2035C699.097 28.9035 698.198 29.8602 697.545 31.0735C696.892 32.2869 696.565 33.6752 696.565 35.2385ZM691.28 35.2385C691.28 33.3719 691.607 31.6685 692.26 30.1285C692.913 28.5652 693.823 27.2119 694.99 26.0685C696.157 24.9252 697.522 24.0502 699.085 23.4435C700.672 22.8135 702.387 22.4985 704.23 22.4985C706.097 22.4985 707.812 22.8135 709.375 23.4435C710.938 24.0502 712.303 24.9252 713.47 26.0685C714.66 27.2119 715.57 28.5652 716.2 30.1285C716.853 31.6685 717.18 33.3719 717.18 35.2385C717.18 37.0819 716.853 38.7969 716.2 40.3835C715.57 41.9469 714.672 43.3119 713.505 44.4785C712.362 45.6452 710.997 46.5552 709.41 47.2085C707.847 47.8385 706.12 48.1535 704.23 48.1535C702.34 48.1535 700.602 47.8385 699.015 47.2085C697.452 46.5552 696.087 45.6452 694.92 44.4785C693.753 43.3119 692.855 41.9469 692.225 40.3835C691.595 38.7969 691.28 37.0819 691.28 35.2385ZM722.484 36.5685V32.4035H730.499C732.086 32.4035 733.498 32.7185 734.734 33.3485C735.994 33.9552 736.986 34.8302 737.709 35.9735C738.456 37.0935 738.829 38.4119 738.829 39.9285C738.829 41.4219 738.456 42.7402 737.709 43.8835C736.986 45.0269 735.994 45.9135 734.734 46.5435C733.498 47.1735 732.086 47.4885 730.499 47.4885H722.484V43.2535H729.589C730.429 43.2535 731.164 43.1369 731.794 42.9035C732.424 42.6469 732.903 42.2735 733.229 41.7835C733.579 41.2935 733.754 40.6752 733.754 39.9285C733.754 39.1585 733.579 38.5285 733.229 38.0385C732.903 37.5485 732.424 37.1869 731.794 36.9535C731.164 36.6969 730.429 36.5685 729.589 36.5685H722.484ZM720.839 22.9885H736.974V27.2235H725.914V47.4885H720.839V22.9885ZM746.557 35.2385C746.557 36.8485 746.919 38.2602 747.642 39.4735C748.389 40.6635 749.357 41.5852 750.547 42.2385C751.737 42.8685 753.032 43.1835 754.432 43.1835C755.599 43.1835 756.637 43.0319 757.547 42.7285C758.457 42.4252 759.274 42.0169 759.997 41.5035C760.744 40.9902 761.385 40.4302 761.922 39.8235V45.4585C760.919 46.2519 759.822 46.8702 758.632 47.3135C757.465 47.7569 755.984 47.9785 754.187 47.9785C752.32 47.9785 750.582 47.6752 748.972 47.0685C747.385 46.4619 745.997 45.5869 744.807 44.4435C743.64 43.3002 742.73 41.9585 742.077 40.4185C741.447 38.8552 741.132 37.1285 741.132 35.2385C741.132 33.3485 741.447 31.6335 742.077 30.0935C742.73 28.5302 743.64 27.1769 744.807 26.0335C745.997 24.8902 747.385 24.0152 748.972 23.4085C750.582 22.8019 752.32 22.4985 754.187 22.4985C755.984 22.4985 757.465 22.7202 758.632 23.1635C759.822 23.6069 760.919 24.2252 761.922 25.0185V30.6535C761.385 30.0469 760.744 29.4869 759.997 28.9735C759.274 28.4602 758.457 28.0519 757.547 27.7485C756.637 27.4452 755.599 27.2935 754.432 27.2935C753.032 27.2935 751.737 27.6202 750.547 28.2735C749.357 28.9035 748.389 29.8135 747.642 31.0035C746.919 32.1935 746.557 33.6052 746.557 35.2385ZM763.042 27.5035V22.9885H781.242V27.5035H774.627V47.4885H769.622V27.5035H763.042ZM787.481 35.0635V32.7885H791.436C792.16 32.7885 792.79 32.6719 793.326 32.4385C793.863 32.2052 794.271 31.8669 794.551 31.4235C794.855 30.9802 795.006 30.4552 795.006 29.8485C795.006 28.9152 794.68 28.2035 794.026 27.7135C793.396 27.2235 792.533 26.9785 791.436 26.9785H788.741V43.4985H791.961C792.801 43.4985 793.56 43.3819 794.236 43.1485C794.913 42.8919 795.438 42.4952 795.811 41.9585C796.208 41.4219 796.406 40.7335 796.406 39.8935C796.406 39.2869 796.29 38.7735 796.056 38.3535C795.846 37.9102 795.531 37.5485 795.111 37.2685C794.715 36.9652 794.248 36.7552 793.711 36.6385C793.175 36.4985 792.591 36.4285 791.961 36.4285H787.481V33.6985H792.416C793.606 33.6985 794.738 33.8269 795.811 34.0835C796.908 34.3402 797.888 34.7485 798.751 35.3085C799.615 35.8452 800.291 36.5452 800.781 37.4085C801.295 38.2719 801.551 39.3102 801.551 40.5235C801.551 42.1335 801.166 43.4519 800.396 44.4785C799.65 45.5052 798.588 46.2635 797.211 46.7535C795.835 47.2435 794.236 47.4885 792.416 47.4885H783.736V22.9885H791.891C793.525 22.9885 794.96 23.2219 796.196 23.6885C797.433 24.1319 798.401 24.8085 799.101 25.7185C799.801 26.6285 800.151 27.7835 800.151 29.1835C800.151 30.4202 799.801 31.4819 799.101 32.3685C798.401 33.2552 797.433 33.9319 796.196 34.3985C794.96 34.8419 793.525 35.0635 791.891 35.0635H787.481ZM808.686 47.4885V43.2535H821.041V47.4885H808.686ZM808.686 27.2235V22.9885H821.041V27.2235H808.686ZM808.686 36.5685V32.4035H820.341V36.5685H808.686ZM805.466 22.9885H810.296V47.4885H805.466V22.9885ZM827.269 36.7085V32.1935H845.259V36.7085H827.269ZM842.074 22.9885H847.079V47.4885H842.074V22.9885ZM825.624 22.9885H830.629V47.4885H825.624V22.9885ZM853.648 36.7085V32.1935H871.638V36.7085H853.648ZM868.453 22.9885H873.458V47.4885H868.453V22.9885ZM852.003 22.9885H857.008V47.4885H852.003V22.9885ZM882.266 35.2385C882.266 36.8019 882.593 38.1902 883.246 39.4035C883.899 40.6169 884.798 41.5735 885.941 42.2735C887.084 42.9735 888.414 43.3235 889.931 43.3235C891.448 43.3235 892.778 42.9735 893.921 42.2735C895.064 41.5735 895.951 40.6169 896.581 39.4035C897.234 38.1902 897.561 36.8019 897.561 35.2385C897.561 33.6752 897.246 32.2869 896.616 31.0735C895.986 29.8602 895.099 28.9035 893.956 28.2035C892.813 27.5035 891.471 27.1535 889.931 27.1535C888.414 27.1535 887.084 27.5035 885.941 28.2035C884.798 28.9035 883.899 29.8602 883.246 31.0735C882.593 32.2869 882.266 33.6752 882.266 35.2385ZM876.981 35.2385C876.981 33.3719 877.308 31.6685 877.961 30.1285C878.614 28.5652 879.524 27.2119 880.691 26.0685C881.858 24.9252 883.223 24.0502 884.786 23.4435C886.373 22.8135 888.088 22.4985 889.931 22.4985C891.798 22.4985 893.513 22.8135 895.076 23.4435C896.639 24.0502 898.004 24.9252 899.171 26.0685C900.361 27.2119 901.271 28.5652 901.901 30.1285C902.554 31.6685 902.881 33.3719 902.881 35.2385C902.881 37.0819 902.554 38.7969 901.901 40.3835C901.271 41.9469 900.373 43.3119 899.206 44.4785C898.063 45.6452 896.698 46.5552 895.111 47.2085C893.548 47.8385 891.821 48.1535 889.931 48.1535C888.041 48.1535 886.303 47.8385 884.716 47.2085C883.153 46.5552 881.788 45.6452 880.621 44.4785C879.454 43.3119 878.556 41.9469 877.926 40.3835C877.296 38.7969 876.981 37.0819 876.981 35.2385ZM909.62 47.4885V43.2535H921.975V47.4885H909.62ZM909.62 27.2235V22.9885H921.975V27.2235H909.62ZM909.62 36.5685V32.4035H921.275V36.5685H909.62ZM906.4 22.9885H911.23V47.4885H906.4V22.9885ZM952.556 27.5035H941.916V47.4885H936.841V22.9885H957.631V47.4885H952.556V27.5035ZM962.738 22.9885H967.743V47.4885H962.738V22.9885ZM965.783 27.2235V22.9885H970.648C972.585 22.9885 974.23 23.3035 975.583 23.9335C976.96 24.5635 978.01 25.4619 978.733 26.6285C979.456 27.7952 979.818 29.1835 979.818 30.7935C979.818 32.3802 979.456 33.7685 978.733 34.9585C978.01 36.1252 976.96 37.0235 975.583 37.6535C974.23 38.2835 972.585 38.5985 970.648 38.5985H965.783V34.3635H970.648C971.978 34.3635 973.028 34.0602 973.798 33.4535C974.568 32.8469 974.953 31.9602 974.953 30.7935C974.953 29.6035 974.568 28.7169 973.798 28.1335C973.028 27.5269 971.978 27.2235 970.648 27.2235H965.783ZM987.225 35.2385C987.225 36.8019 987.552 38.1902 988.205 39.4035C988.858 40.6169 989.757 41.5735 990.9 42.2735C992.043 42.9735 993.373 43.3235 994.89 43.3235C996.407 43.3235 997.737 42.9735 998.88 42.2735C1000.02 41.5735 1000.91 40.6169 1001.54 39.4035C1002.19 38.1902 1002.52 36.8019 1002.52 35.2385C1002.52 33.6752 1002.21 32.2869 1001.58 31.0735C1000.95 29.8602 1000.06 28.9035 998.915 28.2035C997.772 27.5035 996.43 27.1535 994.89 27.1535C993.373 27.1535 992.043 27.5035 990.9 28.2035C989.757 28.9035 988.858 29.8602 988.205 31.0735C987.552 32.2869 987.225 33.6752 987.225 35.2385ZM981.94 35.2385C981.94 33.3719 982.267 31.6685 982.92 30.1285C983.573 28.5652 984.483 27.2119 985.65 26.0685C986.817 24.9252 988.182 24.0502 989.745 23.4435C991.332 22.8135 993.047 22.4985 994.89 22.4985C996.757 22.4985 998.472 22.8135 1000.04 23.4435C1001.6 24.0502 1002.96 24.9252 1004.13 26.0685C1005.32 27.2119 1006.23 28.5652 1006.86 30.1285C1007.51 31.6685 1007.84 33.3719 1007.84 35.2385C1007.84 37.0819 1007.51 38.7969 1006.86 40.3835C1006.23 41.9469 1005.33 43.3119 1004.17 44.4785C1003.02 45.6452 1001.66 46.5552 1000.07 47.2085C998.507 47.8385 996.78 48.1535 994.89 48.1535C993 48.1535 991.262 47.8385 989.675 47.2085C988.112 46.5552 986.747 45.6452 985.58 44.4785C984.413 43.3119 983.515 41.9469 982.885 40.3835C982.255 38.7969 981.94 37.0819 981.94 35.2385ZM1033.44 28.2735L1011.36 48.7135L1011.53 42.2035L1033.62 21.7635L1033.44 28.2735ZM1016.19 22.9885V43.4985L1011.36 48.7135V22.9885H1016.19ZM1033.62 21.7635V47.4885H1028.79V27.1185L1033.62 21.7635ZM1046.36 35.5535V33.1385C1047.55 33.1385 1048.54 32.9869 1049.34 32.6835C1050.13 32.3802 1050.73 31.9719 1051.12 31.4585C1051.54 30.9219 1051.75 30.3385 1051.75 29.7085C1051.75 29.1019 1051.6 28.5769 1051.3 28.1335C1051.02 27.6669 1050.57 27.3052 1049.97 27.0485C1049.38 26.7919 1048.66 26.6635 1047.8 26.6635C1046.91 26.6635 1046.14 26.8035 1045.49 27.0835C1044.83 27.3402 1044.32 27.7135 1043.95 28.2035C1043.6 28.6702 1043.42 29.2069 1043.42 29.8135H1038.77C1038.77 28.4135 1039.12 27.1769 1039.82 26.1035C1040.54 25.0069 1041.58 24.1435 1042.93 23.5135C1044.29 22.8835 1045.91 22.5685 1047.8 22.5685C1049.73 22.5685 1051.36 22.8719 1052.66 23.4785C1053.99 24.0852 1055.01 24.8902 1055.71 25.8935C1056.41 26.8969 1056.76 28.0169 1056.76 29.2535C1056.76 30.2569 1056.49 31.1552 1055.95 31.9485C1055.42 32.7185 1054.68 33.3719 1053.75 33.9085C1052.81 34.4452 1051.72 34.8535 1050.46 35.1335C1049.2 35.4135 1047.83 35.5535 1046.36 35.5535ZM1047.87 47.9785C1046.14 47.9785 1044.64 47.7685 1043.35 47.3485C1042.09 46.9285 1041.04 46.3569 1040.2 45.6335C1039.39 44.8869 1038.77 44.0469 1038.35 43.1135C1037.93 42.1569 1037.72 41.1535 1037.72 40.1035H1042.69C1042.73 40.8969 1042.97 41.5735 1043.39 42.1335C1043.81 42.6935 1044.38 43.1252 1045.1 43.4285C1045.85 43.7085 1046.72 43.8485 1047.73 43.8485C1049.24 43.8485 1050.41 43.5569 1051.23 42.9735C1052.04 42.3669 1052.45 41.4919 1052.45 40.3485C1052.45 39.5785 1052.22 38.9135 1051.75 38.3535C1051.31 37.7702 1050.63 37.3269 1049.72 37.0235C1048.81 36.7202 1047.69 36.5685 1046.36 36.5685V33.9085C1048.49 33.9085 1050.38 34.1535 1052.03 34.6435C1053.71 35.1102 1055.03 35.8569 1055.99 36.8835C1056.97 37.8869 1057.46 39.2169 1057.46 40.8735C1057.46 42.2735 1057.1 43.5102 1056.37 44.5835C1055.65 45.6569 1054.56 46.4969 1053.12 47.1035C1051.69 47.6869 1049.94 47.9785 1047.87 47.9785ZM1064.72 35.0635V32.7885H1068.67C1069.4 32.7885 1070.03 32.6719 1070.56 32.4385C1071.1 32.2052 1071.51 31.8669 1071.79 31.4235C1072.09 30.9802 1072.24 30.4552 1072.24 29.8485C1072.24 28.9152 1071.92 28.2035 1071.26 27.7135C1070.63 27.2235 1069.77 26.9785 1068.67 26.9785H1065.98V43.4985H1069.2C1070.04 43.4985 1070.8 43.3819 1071.47 43.1485C1072.15 42.8919 1072.67 42.4952 1073.05 41.9585C1073.44 41.4219 1073.64 40.7335 1073.64 39.8935C1073.64 39.2869 1073.53 38.7735 1073.29 38.3535C1073.08 37.9102 1072.77 37.5485 1072.35 37.2685C1071.95 36.9652 1071.48 36.7552 1070.95 36.6385C1070.41 36.4985 1069.83 36.4285 1069.2 36.4285H1064.72V33.6985H1069.65C1070.84 33.6985 1071.97 33.8269 1073.05 34.0835C1074.14 34.3402 1075.12 34.7485 1075.99 35.3085C1076.85 35.8452 1077.53 36.5452 1078.02 37.4085C1078.53 38.2719 1078.79 39.3102 1078.79 40.5235C1078.79 42.1335 1078.4 43.4519 1077.63 44.4785C1076.89 45.5052 1075.82 46.2635 1074.45 46.7535C1073.07 47.2435 1071.47 47.4885 1069.65 47.4885H1060.97V22.9885H1069.13C1070.76 22.9885 1072.2 23.2219 1073.43 23.6885C1074.67 24.1319 1075.64 24.8085 1076.34 25.7185C1077.04 26.6285 1077.39 27.7835 1077.39 29.1835C1077.39 30.4202 1077.04 31.4819 1076.34 32.3685C1075.64 33.2552 1074.67 33.9319 1073.43 34.3985C1072.2 34.8419 1070.76 35.0635 1069.13 35.0635H1064.72ZM1086.59 35.2385C1086.59 36.8019 1086.91 38.1902 1087.57 39.4035C1088.22 40.6169 1089.12 41.5735 1090.26 42.2735C1091.41 42.9735 1092.74 43.3235 1094.25 43.3235C1095.77 43.3235 1097.1 42.9735 1098.24 42.2735C1099.39 41.5735 1100.27 40.6169 1100.9 39.4035C1101.56 38.1902 1101.88 36.8019 1101.88 35.2385C1101.88 33.6752 1101.57 32.2869 1100.94 31.0735C1100.31 29.8602 1099.42 28.9035 1098.28 28.2035C1097.13 27.5035 1095.79 27.1535 1094.25 27.1535C1092.74 27.1535 1091.41 27.5035 1090.26 28.2035C1089.12 28.9035 1088.22 29.8602 1087.57 31.0735C1086.91 32.2869 1086.59 33.6752 1086.59 35.2385ZM1081.3 35.2385C1081.3 33.3719 1081.63 31.6685 1082.28 30.1285C1082.94 28.5652 1083.85 27.2119 1085.01 26.0685C1086.18 24.9252 1087.54 24.0502 1089.11 23.4435C1090.69 22.8135 1092.41 22.4985 1094.25 22.4985C1096.12 22.4985 1097.83 22.8135 1099.4 23.4435C1100.96 24.0502 1102.33 24.9252 1103.49 26.0685C1104.68 27.2119 1105.59 28.5652 1106.22 30.1285C1106.88 31.6685 1107.2 33.3719 1107.2 35.2385C1107.2 37.0819 1106.88 38.7969 1106.22 40.3835C1105.59 41.9469 1104.69 43.3119 1103.53 44.4785C1102.38 45.6452 1101.02 46.5552 1099.43 47.2085C1097.87 47.8385 1096.14 48.1535 1094.25 48.1535C1092.36 48.1535 1090.62 47.8385 1089.04 47.2085C1087.47 46.5552 1086.11 45.6452 1084.94 44.4785C1083.78 43.3119 1082.88 41.9469 1082.25 40.3835C1081.62 38.7969 1081.3 37.0819 1081.3 35.2385ZM1121.88 31.2135L1116.24 46.4385H1110.54L1121.88 21.7635L1133.22 46.4385H1127.51L1121.88 31.2135ZM1130.49 47.4885H1113.27V51.3385H1108.4V43.1135H1135.35V51.3385H1130.49V47.4885ZM1142.22 35.2385C1142.22 36.8485 1142.58 38.2602 1143.3 39.4735C1144.05 40.6635 1145.02 41.5852 1146.21 42.2385C1147.4 42.8685 1148.69 43.1835 1150.09 43.1835C1151.26 43.1835 1152.3 43.0319 1153.21 42.7285C1154.12 42.4252 1154.93 42.0169 1155.66 41.5035C1156.4 40.9902 1157.05 40.4302 1157.58 39.8235V45.4585C1156.58 46.2519 1155.48 46.8702 1154.29 47.3135C1153.13 47.7569 1151.64 47.9785 1149.85 47.9785C1147.98 47.9785 1146.24 47.6752 1144.63 47.0685C1143.05 46.4619 1141.66 45.5869 1140.47 44.4435C1139.3 43.3002 1138.39 41.9585 1137.74 40.4185C1137.11 38.8552 1136.79 37.1285 1136.79 35.2385C1136.79 33.3485 1137.11 31.6335 1137.74 30.0935C1138.39 28.5302 1139.3 27.1769 1140.47 26.0335C1141.66 24.8902 1143.05 24.0152 1144.63 23.4085C1146.24 22.8019 1147.98 22.4985 1149.85 22.4985C1151.64 22.4985 1153.13 22.7202 1154.29 23.1635C1155.48 23.6069 1156.58 24.2252 1157.58 25.0185V30.6535C1157.05 30.0469 1156.4 29.4869 1155.66 28.9735C1154.93 28.4602 1154.12 28.0519 1153.21 27.7485C1152.3 27.4452 1151.26 27.2935 1150.09 27.2935C1148.69 27.2935 1147.4 27.6202 1146.21 28.2735C1145.02 28.9035 1144.05 29.8135 1143.3 31.0035C1142.58 32.1935 1142.22 33.6052 1142.22 35.2385ZM1158.7 27.5035V22.9885H1176.9V27.5035H1170.29V47.4885H1165.28V27.5035H1158.7ZM1183.14 35.0635V32.7885H1187.1C1187.82 32.7885 1188.45 32.6719 1188.99 32.4385C1189.52 32.2052 1189.93 31.8669 1190.21 31.4235C1190.52 30.9802 1190.67 30.4552 1190.67 29.8485C1190.67 28.9152 1190.34 28.2035 1189.69 27.7135C1189.06 27.2235 1188.19 26.9785 1187.1 26.9785H1184.4V43.4985H1187.62C1188.46 43.4985 1189.22 43.3819 1189.9 43.1485C1190.57 42.8919 1191.1 42.4952 1191.47 41.9585C1191.87 41.4219 1192.07 40.7335 1192.07 39.8935C1192.07 39.2869 1191.95 38.7735 1191.72 38.3535C1191.51 37.9102 1191.19 37.5485 1190.77 37.2685C1190.38 36.9652 1189.91 36.7552 1189.37 36.6385C1188.84 36.4985 1188.25 36.4285 1187.62 36.4285H1183.14V33.6985H1188.08C1189.27 33.6985 1190.4 33.8269 1191.47 34.0835C1192.57 34.3402 1193.55 34.7485 1194.41 35.3085C1195.28 35.8452 1195.95 36.5452 1196.44 37.4085C1196.96 38.2719 1197.21 39.3102 1197.21 40.5235C1197.21 42.1335 1196.83 43.4519 1196.06 44.4785C1195.31 45.5052 1194.25 46.2635 1192.87 46.7535C1191.5 47.2435 1189.9 47.4885 1188.08 47.4885H1179.4V22.9885H1187.55C1189.19 22.9885 1190.62 23.2219 1191.86 23.6885C1193.09 24.1319 1194.06 24.8085 1194.76 25.7185C1195.46 26.6285 1195.81 27.7835 1195.81 29.1835C1195.81 30.4202 1195.46 31.4819 1194.76 32.3685C1194.06 33.2552 1193.09 33.9319 1191.86 34.3985C1190.62 34.8419 1189.19 35.0635 1187.55 35.0635H1183.14ZM1205.01 35.2385C1205.01 36.8019 1205.34 38.1902 1205.99 39.4035C1206.65 40.6169 1207.54 41.5735 1208.69 42.2735C1209.83 42.9735 1211.16 43.3235 1212.68 43.3235C1214.19 43.3235 1215.52 42.9735 1216.67 42.2735C1217.81 41.5735 1218.7 40.6169 1219.33 39.4035C1219.98 38.1902 1220.31 36.8019 1220.31 35.2385C1220.31 33.6752 1219.99 32.2869 1219.36 31.0735C1218.73 29.8602 1217.85 28.9035 1216.7 28.2035C1215.56 27.5035 1214.22 27.1535 1212.68 27.1535C1211.16 27.1535 1209.83 27.5035 1208.69 28.2035C1207.54 28.9035 1206.65 29.8602 1205.99 31.0735C1205.34 32.2869 1205.01 33.6752 1205.01 35.2385ZM1199.73 35.2385C1199.73 33.3719 1200.05 31.6685 1200.71 30.1285C1201.36 28.5652 1202.27 27.2119 1203.44 26.0685C1204.6 24.9252 1205.97 24.0502 1207.53 23.4435C1209.12 22.8135 1210.83 22.4985 1212.68 22.4985C1214.54 22.4985 1216.26 22.8135 1217.82 23.4435C1219.39 24.0502 1220.75 24.9252 1221.92 26.0685C1223.11 27.2119 1224.02 28.5652 1224.65 30.1285C1225.3 31.6685 1225.63 33.3719 1225.63 35.2385C1225.63 37.0819 1225.3 38.7969 1224.65 40.3835C1224.02 41.9469 1223.12 43.3119 1221.95 44.4785C1220.81 45.6452 1219.44 46.5552 1217.86 47.2085C1216.29 47.8385 1214.57 48.1535 1212.68 48.1535C1210.79 48.1535 1209.05 47.8385 1207.46 47.2085C1205.9 46.5552 1204.53 45.6452 1203.37 44.4785C1202.2 43.3119 1201.3 41.9469 1200.67 40.3835C1200.04 38.7969 1199.73 37.0819 1199.73 35.2385Z" fill="black"/>
<defs>
<filter id="filter0_d_341_3" x="-4" y="0" width="1488" height="729" filterUnits="userSpaceOnUse" color-interpolation-filters="sRGB">
<feFlood flood-opacity="0" result="BackgroundImageFix"/>
<feColorMatrix in="SourceAlpha" type="matrix" values="0 0 0 0 0 0 0 0 0 0 0 0 0 0 0 0 0 0 127 0" result="hardAlpha"/>
<feOffset dy="4"/>
<feGaussianBlur stdDeviation="2"/>
<feComposite in2="hardAlpha" operator="out"/>
<feColorMatrix type="matrix" values="0 0 0 0 0 0 0 0 0 0 0 0 0 0 0 0 0 0 0.25 0"/>
<feBlend mode="normal" in2="BackgroundImageFix" result="effect1_dropShadow_341_3"/>
<feBlend mode="normal" in="SourceGraphic" in2="effect1_dropShadow_341_3" result="shape"/>
</filter>
<filter id="filter1_d_341_3" x="562" y="0" width="922" height="76.2949" filterUnits="userSpaceOnUse" color-interpolation-filters="sRGB">
<feFlood flood-opacity="0" result="BackgroundImageFix"/>
<feColorMatrix in="SourceAlpha" type="matrix" values="0 0 0 0 0 0 0 0 0 0 0 0 0 0 0 0 0 0 127 0" result="hardAlpha"/>
<feOffset dy="4"/>
<feGaussianBlur stdDeviation="2"/>
<feComposite in2="hardAlpha" operator="out"/>
<feColorMatrix type="matrix" values="0 0 0 0 0 0 0 0 0 0 0 0 0 0 0 0 0 0 0.25 0"/>
<feBlend mode="normal" in2="BackgroundImageFix" result="effect1_dropShadow_341_3"/>
<feBlend mode="normal" in="SourceGraphic" in2="effect1_dropShadow_341_3" result="shape"/>
</filter>
</defs>
</svg>
