<svg width="30" height="30" viewBox="0 0 30 30" fill="none" xmlns="http://www.w3.org/2000/svg">
<g id="comment">
<path id="Vector" d="M7.73326 20.6862C7.90799 20.2084 7.70496 19.6906 7.29125 19.3944C7.09964 19.2571 6.91051 19.1175 6.7271 18.9699C5.68382 18.1377 4.8172 17.1425 4.28625 15.8774C3.42404 13.8267 3.61826 11.8472 4.74857 9.965C5.92104 8.01274 7.66125 6.79134 9.69956 6.0139C13.0782 4.72425 16.4962 4.66044 19.9127 5.84802C21.9114 6.54252 23.6534 7.65718 24.9445 9.43537C26.7955 11.9875 26.6662 15.2502 24.6325 17.6691C22.9845 19.6286 20.8531 20.6932 18.4634 21.2794C17.166 21.598 13.8091 21.0532 12.9455 21.7842C11.1262 23.372 9.03879 24.3762 6.72012 24.883C6.50919 24.9286 6.29297 24.9577 6.07937 24.9896C5.80867 25.0307 5.58719 24.9532 5.44831 24.6907C5.31032 24.4282 5.36041 24.1895 5.53269 23.9725C5.73307 23.721 5.937 23.4712 6.15584 23.2397C6.84901 22.5095 7.38497 21.6389 7.73326 20.6862Z" stroke="white" stroke-width="1.25" stroke-linecap="round"/>
</g>
</svg>
