<svg width="62" height="62" viewBox="0 0 62 62" fill="none" xmlns="http://www.w3.org/2000/svg">
<g id="blob-verified">
<path id="Vector" d="M39.4036 26.1196L30.6905 36.973C29.7277 38.1724 27.9369 38.2701 26.8494 37.1825L23.25 33.5831" stroke="#FFBA00" stroke-width="5" stroke-linecap="round"/>
<path id="Vector_2" d="M33.7342 11.094C34.2705 10.7488 34.5387 10.5762 34.7562 10.4638C37.5048 9.04267 40.8776 10.3397 41.9657 13.2363C42.0518 13.4655 42.1352 13.7733 42.3021 14.3889C42.3791 14.6731 42.4176 14.8152 42.4607 14.9459C42.982 16.5299 44.2357 17.7649 45.8273 18.2623C45.9588 18.3034 46.1014 18.3397 46.3869 18.4125L46.7743 18.5112C48.1151 18.853 48.7855 19.0239 49.275 19.2667C51.5006 20.3703 52.6256 22.9015 51.9537 25.2929C51.8059 25.8191 51.4835 26.4312 50.839 27.6555L50.6527 28.0094C50.5155 28.2698 50.4468 28.4003 50.3892 28.5253C49.692 30.0399 49.7687 31.7981 50.5954 33.2466C50.6636 33.3659 50.7431 33.4899 50.9025 33.7374C51.2477 34.2737 51.4202 34.5419 51.5329 34.7594C52.9539 37.5081 51.6569 40.8809 48.7602 41.969C48.531 42.055 48.2233 42.1384 47.6077 42.3053C47.3236 42.3823 47.1812 42.4208 47.0505 42.4639C45.4667 42.9852 44.2316 44.2389 43.7343 45.8305C43.6932 45.962 43.6568 46.1046 43.5842 46.3901L43.4853 46.7773C43.1435 48.1183 42.9727 48.7887 42.7299 49.2782C41.6263 51.5038 39.0951 52.6288 36.7037 51.9569C36.1775 51.8091 35.5653 51.4867 34.341 50.8419L33.9874 50.6557C33.7267 50.5185 33.5965 50.45 33.4715 50.3924C31.9566 49.6952 30.1984 49.7719 28.7502 50.5983C28.6306 50.6668 28.5068 50.7463 28.2591 50.9057C27.7228 51.2509 27.4546 51.4234 27.2371 51.5361C24.4886 52.9572 21.1158 51.6601 20.0276 48.7634C19.9415 48.5342 19.8581 48.2266 19.6912 47.611C19.6142 47.3265 19.5757 47.1844 19.5327 47.0537C19.0114 45.4699 17.7576 44.2348 16.1659 43.7375C16.0346 43.6964 15.8919 43.66 15.6065 43.5872L15.2191 43.4885C13.8783 43.1467 13.2079 42.9759 12.7183 42.7331C10.4929 41.6295 9.36779 39.0984 10.0397 36.7067C10.1875 36.1807 10.5098 35.5685 11.1545 34.3442L11.3408 33.9903C11.478 33.7299 11.5465 33.5995 11.6041 33.4744C12.3014 31.9598 12.2246 30.2016 11.3981 28.7531C11.3299 28.6338 11.2502 28.5098 11.0908 28.2623C10.7456 27.726 10.573 27.4579 10.4606 27.2403C9.0395 24.4918 10.3366 21.1189 13.2331 20.0308C13.4623 19.9447 13.7701 19.8613 14.3857 19.6944C14.6699 19.6174 14.812 19.5789 14.9428 19.5358C16.5267 19.0145 17.7618 17.7608 18.2591 16.1691C18.3002 16.0377 18.3366 15.8951 18.4093 15.6097L18.508 15.2223C18.8498 13.8815 19.0207 13.2111 19.2635 12.7215C20.3672 10.4961 22.8983 9.37096 25.2898 10.0428C25.8159 10.1907 26.428 10.513 27.6523 11.1577L28.0062 11.3439C28.2666 11.4811 28.397 11.5497 28.5221 11.6073C30.0367 12.3045 31.7949 12.2278 33.2434 11.4013C33.3627 11.333 33.4867 11.2534 33.7342 11.094Z" stroke="#FFBA00" stroke-width="5" stroke-linecap="round"/>
</g>
</svg>
